<?xml version="1.0" encoding="utf-8"?>
<!-- Generator: Adobe Illustrator 24.1.2, SVG Export Plug-In . SVG Version: 6.00 Build 0)  -->
<svg version="1.1" id="Layer_1" xmlns="http://www.w3.org/2000/svg" xmlns:xlink="http://www.w3.org/1999/xlink" x="0px" y="0px"
	 viewBox="0 0 32 32" style="enable-background:new 0 0 32 32;" xml:space="preserve">
<style type="text/css">
	.st0{fill:#41BC9B;}
	.st1{fill:#262728;}
	.st2{fill:#FFFFFF;}
</style>
<g>
	<g>
		<polygon class="st0" points="10.2,30 29.6,30 29.6,22.7 17.1,22.7 		"/>
	</g>
	<g>
		<rect x="20.2" y="13.2" class="st1" width="9.5" height="1.1"/>
	</g>
	<g>
		<rect x="2.3" y="13.2" class="st1" width="6.8" height="1.1"/>
	</g>
	<g>
		
			<rect x="-1.2" y="21.3" transform="matrix(0.6808 -0.7325 0.7325 0.6808 -12.8405 14.2668)" class="st1" width="22.3" height="1.1"/>
	</g>
	<g>
		
			<rect x="6.2" y="21.3" transform="matrix(0.6808 -0.7325 0.7325 0.6808 -10.487 19.6668)" class="st1" width="22.3" height="1.1"/>
	</g>
	<g>
		<rect x="2.3" y="22.7" class="st1" width="6.3" height="1.1"/>
	</g>
	<g>
		<rect x="16.5" y="22.1" class="st1" width="13.2" height="1.1"/>
	</g>
	<g>
		<path class="st0" d="M29.6,20h-1.6V19h1.6V20z M26.5,20h-1.6V19h1.6V20z M23.3,20h-1.6V19h1.6V20z"/>
	</g>
	<g>
		<path class="st0" d="M29.6,16.9h-1.6v-1.1h1.6V16.9z M26.5,16.9h-1.6v-1.1h1.6V16.9z"/>
	</g>
	<g>
		<g>
			<g>
				<path class="st0" d="M8.8,9.6c0,5,5.7,10.7,5.7,10.7s5.7-5.7,5.7-10.7c0-3.2-2.6-5.7-5.7-5.7C11.3,3.9,8.8,6.5,8.8,9.6z"/>
			</g>
			<g>
				<circle class="st2" cx="13.9" cy="8.4" r="1.6"/>
			</g>
			<g>
				<path class="st1" d="M13.2,19.7c-0.1,0-0.3-0.1-0.4-0.2C12.6,19.3,7,13.6,7,8.4C7,5,9.8,2.2,13.2,2.2s6.2,2.8,6.2,6.2
					c0,5.2-5.6,10.9-5.9,11.1C13.5,19.6,13.4,19.7,13.2,19.7z M13.2,3.2c-2.9,0-5.2,2.3-5.2,5.2c0,4,3.9,8.6,5.2,10
					c1.2-1.4,5.2-6,5.2-10C18.4,5.6,16.1,3.2,13.2,3.2z"/>
			</g>
			<g>
				<path class="st1" d="M13.3,10c-1.2,0-2.1-0.9-2.1-2.1s0.9-2.1,2.1-2.1s2.1,0.9,2.1,2.1S14.5,10,13.3,10z M13.3,6.9
					c-0.6,0-1.1,0.5-1.1,1.1S12.7,9,13.3,9s1.1-0.5,1.1-1.1S13.9,6.9,13.3,6.9z"/>
			</g>
		</g>
	</g>
	<g>
		<rect x="2.3" y="20.5" class="st1" width="8.4" height="1.1"/>
	</g>
	<g>
		<rect x="2.3" y="15.3" class="st1" width="8.4" height="1.1"/>
	</g>
	<g>
		<g>
			<path class="st2" d="M18.8,25.4c0.8,0.6,0.8,2,0.8,2s-1.2,0.1-2-0.5c-0.8-0.6-0.8-1.8-0.8-1.8S18,24.8,18.8,25.4z"/>
		</g>
		<g>
			<path class="st2" d="M19.5,25.4c-0.8,0.6-0.9,2.1-0.9,2.1s1.3,0,2-0.6c0.8-0.6,0.8-1.9,0.8-1.9S20.3,24.8,19.5,25.4z"/>
		</g>
		<g>
			<rect x="18.6" y="26.9" class="st2" width="1.1" height="2.1"/>
		</g>
	</g>
	<g>
		<g>
			<path class="st2" d="M25.1,25.4c0.8,0.6,0.8,2,0.8,2s-1.2,0.1-2-0.5c-0.8-0.6-0.8-1.8-0.8-1.8S24.4,24.8,25.1,25.4z"/>
		</g>
		<g>
			<path class="st2" d="M25.9,25.4C25.1,26,25,27.5,25,27.5s1.3,0,2-0.6c0.8-0.6,0.8-1.9,0.8-1.9S26.6,24.8,25.9,25.4z"/>
		</g>
		<g>
			<rect x="24.9" y="26.9" class="st2" width="1.1" height="2.1"/>
		</g>
	</g>
</g>
</svg>
